Coordinates
version=1
nRows=14
nColumns=24
inDegrees=yes

Units are S.I. units (second, meters, Newtons, ...)
Angles are in degrees.

endheader
time	pelvis_tilt	pelvis_list	pelvis_rotation	pelvis_tx	pelvis_ty	pelvis_tz	hip_flexion_r	hip_adduction_r	hip_rotation_r	knee_angle_r	ankle_angle_r	subtalar_angle_r	mtp_angle_r	hip_flexion_l	hip_adduction_l	hip_rotation_l	knee_angle_l	ankle_angle_l	subtalar_angle_l	mtp_angle_l	lumbar_extension	lumbar_bending	lumbar_rotation
      5.69000000	     -1.62066443	      3.57906240	     18.69313018	      1.08396503	      0.64218392	     -0.18513398	     26.80917907	     -6.21002006	    -18.80514107	     -7.32705831	     -4.86178668	     -8.48345623	      0.00000000	    -19.12289588	      2.63810360	     18.43710920	    -13.51824657	     24.10343482	      2.74276543	      0.00000000	    -14.23511643	     -8.74054693	    -16.43786586
      5.70000000	     -1.30742440	      2.77106416	     19.08380794	      1.09700293	      0.64171911	     -0.18547798	     26.38541344	     -4.91368533	    -15.93430636	     -8.68416023	     -6.56862245	    -14.42037520	      0.00000000	    -18.72573039	      1.56863587	     17.33175405	    -16.39291848	     23.18593915	      3.65295848	      0.00000000	    -13.85057162	     -7.74969886	    -16.62235433
      5.71000000	     -0.94078606	      1.76003766	     19.13191062	      1.10980229	      0.64178909	     -0.18546814	     26.19715138	     -3.28586867	    -13.10092800	    -10.32709414	     -7.80350706	    -19.41877851	      0.00000000	    -18.13588033	      0.38120008	     16.00553040	    -19.44697126	     21.61684481	      4.42884763	      0.00000000	    -13.51883140	     -6.58092571	    -16.40167190
      5.72000000	     -0.42910406	      0.62675787	     18.86255692	      1.12234189	      0.64249661	     -0.18519592	     26.12070773	     -1.42233409	    -10.66217233	    -12.35985508	     -8.08065826	    -22.93733345	      0.00000000	    -17.47847682	     -0.87827948	     14.54555471	    -22.65883801	     19.28769151	      5.03626794	      0.00000000	    -13.40096629	     -5.25294337	    -15.86512106
      5.73000000	      0.09026469	     -0.48899286	     18.40420122	      1.13460142	      0.64370343	     -0.18479207	     26.14097055	      0.43530444	     -8.87335979	    -14.64388801	     -7.27050898	    -24.79321003	      0.00000000	    -16.60342291	     -2.06230205	     13.08097528	    -26.09395396	     16.13860272	      5.49423351	      0.00000000	    -13.41435699	     -3.94431650	    -15.23032243
      5.74000000	      0.56510594	     -1.46302524	     17.92744601	      1.14658814	      0.64529403	     -0.18437388	     26.04165859	      2.10571753	     -7.68369791	    -16.74878832	     -5.92860495	    -25.59613272	      0.00000000	    -15.43896043	     -3.09092246	     11.75932802	    -29.78307059	     12.29897648	      5.85182116	      0.00000000	    -13.54701578	     -2.79279905	    -14.70849111
      5.75000000	      0.95339467	     -2.27502472	     17.56630659	      1.15828410	      0.64710270	     -0.18400080	     25.70101360	      3.51304296	     -7.04186000	    -18.33628272	     -4.49546306	    -25.87975778	      0.00000000	    -13.88873150	     -3.98321828	     10.64066664	    -33.75792920	      8.14990387	      6.15892186	      0.00000000	    -13.73622985	     -1.83566917	    -14.36671047
      5.76000000	      1.12368761	     -2.83999910	     17.51161588	      1.16955664	      0.64897062	     -0.18387742	     25.23111041	      4.39650117	     -7.25449857	    -19.39704034	     -2.17633360	    -24.86944033	      0.00000000	    -11.82627186	     -4.57744455	     10.11524562	    -37.96387472	      3.91525954	      5.92609775	      0.00000000	    -13.84555829	     -1.18659251	    -14.31798666
      5.77000000	      1.27271337	     -3.27466601	     17.66105237	      1.18042547	      0.65085352	     -0.18383691	     24.42761449	      5.06032290	     -7.78471920	    -19.78465082	     -0.52738209	    -24.10800124	      0.00000000	     -9.46122785	     -5.04496729	      9.81863085	    -42.33910535	      0.05199065	      5.00355479	      0.00000000	    -14.04760290	     -0.69236512	    -14.38205899
      5.78000000	      1.32212922	     -3.63533363	     17.97290988	      1.19087791	      0.65259732	     -0.18386837	     23.48636145	      5.55521477	     -8.59341323	    -19.68243482	      0.97058182	    -23.33713717	      0.00000000	     -6.77333005	     -5.35474457	      9.74827327	    -46.78691414	     -3.16422847	      3.02894208	      0.00000000	    -14.20790212	     -0.33813464	    -14.36098119
      5.79000000	      1.33206157	     -3.96243904	     18.32776492	      1.20096232	      0.65421813	     -0.18389877	     22.44956366	      6.00646014	     -9.48599441	    -19.26115827	      2.25341247	    -22.65018711	      0.00000000	     -3.93236367	     -5.52244268	      9.77229826	    -51.14789941	     -5.66714446	     -0.19319994	      0.00000000	    -14.37318890	     -0.08402386	    -14.07857370
      5.80000000	      1.31000497	     -4.23301130	     18.52904637	      1.21078334	      0.65578636	     -0.18378011	     21.38572274	      6.47575579	    -10.17890424	    -18.71688927	      3.57476401	    -21.71674762	      0.00000000	     -1.07767324	     -5.55147899	      9.61306429	    -55.23285199	     -7.61600736	     -4.63730269	      0.00000000	    -14.54724139	      0.02744531	    -13.59151942
      5.81000000	      1.29897053	     -4.48743354	     18.49750984	      1.22046795	      0.65739776	     -0.18346847	     20.30173450	      7.02980983	    -10.63811068	    -18.13489105	      4.74967340	    -20.80473582	      0.00000000	      1.67007388	     -5.53801483	      9.21135797	    -58.90413423	     -9.12894034	     -9.89249446	      0.00000000	    -14.73799719	      0.04391165	    -12.71767122
      5.82000000	      1.27044069	     -4.64711659	     18.15745797	      1.23008458	      0.65914631	     -0.18295302	     19.19166186	      7.60961834	    -10.60285338	    -17.54228395	      5.84787451	    -19.86218546	      0.00000000	      4.24541316	     -5.41132892	      8.56675430	    -62.05377210	    -10.24102794	    -15.38508741	      0.00000000	    -14.93837200	     -0.09228516	    -11.63528084
